<svg xmlns="http://www.w3.org/2000/svg" width="64" height="64" enable-background="new 0 0 64 64" viewBox="0 0 64 64"><path fill="#967ADC" d="M32,29c1.66,0,3,1.34,3,3s-1.34,3-3,3c-1.65,0-3-1.34-3-3S30.35,29,32,29z"/><path fill="#AC92EC" d="M40,32c0,1.24-0.28,2.42-0.79,3.47c-0.08,0.181-0.181,0.36-0.28,0.53c-1.32,2.28-3.73,3.85-6.52,3.99
		C32.27,40,32.14,40,32,40c-2.87,0-5.381-1.51-6.79-3.77c-0.05-0.07-0.091-0.15-0.14-0.23C24.39,34.83,24,33.46,24,32
		c0-1.24,0.279-2.42,0.79-3.47c0.079-0.181,0.18-0.36,0.28-0.53c1.319-2.28,3.729-3.85,6.52-3.99C31.73,24,31.859,24,32,24
		c2.869,0,5.38,1.51,6.79,3.77c0.05,0.07,0.09,0.15,0.14,0.23C39.609,29.17,40,30.54,40,32z M35,32c0-1.66-1.34-3-3-3
		c-1.65,0-3,1.34-3,3s1.35,3,3,3C33.66,35,35,33.66,35,32z"/><path fill="#967ADC" d="M31.999 36c-2.206 0-4-1.794-4-4 0-2.206 1.794-4 4-4s4 1.794 4 4C35.999 34.206 34.205 36 31.999 36zM31.999 30c-1.103 0-2 .897-2 2 0 1.103.897 2 2 2s2-.897 2-2C33.999 30.897 33.102 30 31.999 30zM31.999 41c-.553 0-1-.447-1-1s.447-1 1-1c8.822 0 16-7.178 16-16 0-.552.447-1 1-1s1 .448 1 1C49.999 32.925 41.924 41 31.999 41z"/><path fill="#967ADC" d="M48.999 24c-.553 0-1-.448-1-1 0-11.58-9.421-21-21-21-.553 0-1-.448-1-1s.447-1 1-1c12.683 0 23 10.318 23 23C49.999 23.552 49.552 24 48.999 24zM14.999 42.001c-.553 0-1-.447-1-1 0-9.927 8.075-18.003 18-18.003.553 0 1 .448 1 1s-.447 1-1 1c-8.822 0-16 7.179-16 16.003C15.999 41.554 15.552 42.001 14.999 42.001z"/><path fill="#967ADC" d="M36.999 64c-12.683 0-23-10.317-23-23 0-.553.447-1 1-1s1 .447 1 1c0 11.579 9.421 21 21 21 .553 0 1 .447 1 1S37.552 64 36.999 64zM38.927 37c-.17 0-.342-.043-.499-.134-.479-.276-.643-.888-.366-1.366 2.139-3.704 2.708-8.016 1.603-12.143-1.106-4.126-3.755-7.576-7.459-9.715-.479-.276-.643-.888-.366-1.366.276-.479.889-.643 1.366-.366 4.167 2.406 7.146 6.288 8.391 10.93 1.244 4.643.604 9.494-1.802 13.66C39.608 36.821 39.272 37 38.927 37z"/><path fill="#967ADC" d="M2.652 21.83c-.17 0-.342-.043-.499-.134-.479-.276-.643-.888-.366-1.366 3.074-5.325 8.033-9.132 13.965-10.722 5.93-1.588 12.129-.772 17.453 2.302.479.276.643.888.366 1.366-.277.478-.89.642-1.366.366-4.861-2.808-10.521-3.554-15.936-2.103-5.415 1.451-9.943 4.928-12.75 9.79C3.334 21.651 2.998 21.83 2.652 21.83zM31.294 52.223c-.17 0-.342-.043-.499-.134-8.597-4.965-11.553-15.995-6.591-24.59.275-.479.889-.643 1.366-.366.479.276.643.888.366 1.366-4.411 7.64-1.783 17.445 5.858 21.857.479.276.643.888.366 1.366C31.976 52.044 31.64 52.223 31.294 52.223z"/><path fill="#967ADC" d="M42.256 55.165c-3.9 0-7.849-.991-11.462-3.077-.479-.276-.643-.888-.366-1.366s.888-.644 1.366-.366c10.031 5.791 22.898 2.343 28.687-7.686.276-.479.889-.643 1.366-.366.479.276.643.888.366 1.366C57.958 51.039 50.21 55.165 42.256 55.165zM38.93 28.999c-.346 0-.682-.179-.867-.5-4.411-7.642-14.219-10.269-21.858-5.856-.479.275-1.09.112-1.366-.366-.276-.479-.112-1.09.366-1.366 4.168-2.405 9.018-3.045 13.661-1.802 4.643 1.244 8.523 4.224 10.93 8.391.276.479.112 1.09-.366 1.366C39.271 28.956 39.1 28.999 38.93 28.999z"/><path fill="#967ADC" d="M7.654 52.828c-.346 0-.682-.179-.867-.5C.446 41.345 4.222 27.251 15.204 20.91c.477-.277 1.089-.113 1.366.366.276.479.112 1.09-.366 1.366C6.177 28.432 2.729 41.3 8.52 51.328c.276.479.112 1.09-.366 1.366C7.996 52.785 7.824 52.828 7.654 52.828zM39.823 45.494c-6.227 0-12.289-3.227-15.619-8.994-.276-.479-.112-1.09.366-1.366.477-.276 1.09-.113 1.366.366 4.411 7.639 14.216 10.267 21.858 5.854.476-.275 1.089-.111 1.366.366.276.479.112 1.09-.366 1.366C45.967 44.719 42.875 45.494 39.823 45.494z"/><path fill="#967ADC" d="M48.295,43.221c-0.346,0-0.682-0.179-0.867-0.5c-0.276-0.479-0.112-1.09,0.366-1.366
		c10.028-5.789,13.477-18.658,7.687-28.687c-0.276-0.479-0.112-1.09,0.366-1.366c0.477-0.276,1.089-0.113,1.366,0.366
		c6.341,10.983,2.564,25.078-8.419,31.419C48.637,43.178,48.465,43.221,48.295,43.221z"/><path fill="#E6E9ED" d="M12.999,8c-0.553,0-1-0.448-1-1V3c0-0.552,0.447-1,1-1s1,0.448,1,1v4C13.999,7.552,13.552,8,12.999,8z"/><path fill="#E6E9ED" d="M13.999 6h-2c-.553 0-1-.448-1-1s.447-1 1-1h2c.553 0 1 .448 1 1S14.552 6 13.999 6zM49.034 63.041c-.553 0-1-.447-1-1v-4.002c0-.553.447-1 1-1s1 .447 1 1v4.002C50.034 62.594 49.587 63.041 49.034 63.041z"/><path fill="#E6E9ED" d="M50.034,61.04h-2c-0.553,0-1-0.447-1-1s0.447-1,1-1h2c0.553,0,1,0.447,1,1S50.587,61.04,50.034,61.04z"/><path fill="#48CFAD" d="M38.023,51.029c-0.553,0-1-0.447-1-1v-2c0-0.553,0.447-1,1-1s1,0.447,1,1v2
		C39.023,50.582,38.576,51.029,38.023,51.029z"/><path fill="#48CFAD" d="M39.023,50.029h-2c-0.553,0-1-0.447-1-1s0.447-1,1-1h2c0.553,0,1,0.447,1,1S39.576,50.029,39.023,50.029z"/><path fill="#FFCE54" d="M9.996,41.02c-0.553,0-1-0.447-1-1v-2c0-0.553,0.447-1,1-1s1,0.447,1,1v2
		C10.996,40.572,10.549,41.02,9.996,41.02z"/><path fill="#FFCE54" d="M10.996,40.02h-2c-0.553,0-1-0.447-1-1s0.447-1,1-1h2c0.553,0,1,0.447,1,1S11.549,40.02,10.996,40.02z"/><path fill="#ED5565" d="M45.026,41.029c-0.553,0-1.005-0.447-1.005-1s0.442-1,0.994-1h0.011c0.552,0,1,0.447,1,1
		S45.578,41.029,45.026,41.029z"/><path fill="#5D9CEC" d="M42.023,15.014c-0.553,0-1.005-0.448-1.005-1s0.442-1,0.994-1h0.011c0.552,0,1,0.448,1,1
		S42.575,15.014,42.023,15.014z"/><path fill="#A0D468" d="M16.999,15.014c-0.553,0-1.005-0.448-1.005-1s0.442-1,0.994-1h0.011c0.552,0,1,0.448,1,1
		S17.551,15.014,16.999,15.014z"/><path fill="#5D9CEC" d="M24.006,53.041c-0.553,0-1.005-0.447-1.005-1s0.442-1,0.994-1h0.011c0.552,0,1,0.447,1,1
		S24.558,53.041,24.006,53.041z"/><path fill="#A0D468" d="M54.035,25.018c-0.553,0-1.005-0.448-1.005-1s0.442-1,0.994-1h0.011c0.552,0,1,0.448,1,1
		S54.587,25.018,54.035,25.018z"/><path fill="#AC92EC" d="M31.999,41c-4.963,0-9-4.037-9-9c0-4.962,4.037-9,9-9s9,4.038,9,9C40.999,36.963,36.962,41,31.999,41z
		 M31.999,25c-3.859,0-7,3.14-7,7c0,3.859,3.141,7,7,7s7-3.141,7-7C38.999,28.14,35.858,25,31.999,25z"/></svg>